<svg width="156" height="160" viewBox="0 0 156 160" fill="none" xmlns="http://www.w3.org/2000/svg">
<g clip-path="url(#clip0_22_46)">
<path d="M95.17 3.64C95.17 3.64 36.77 -15.57 9.95996 41.03C10.81 44.52 14.41 48.71 22 54C29 40 49 51.5 40.5 64.5C49.38 67.74 56.69 67.52 65.24 63.14C79.88 43.37 104 28 95.17 3.65V3.64Z" fill="#6F8437" stroke="#6F8437" stroke-miterlimit="10"/>
<path d="M7.55999 46.09C7.55999 46.09 -15.13 109.08 51.06 132.72C36 103 61.76 69.61 61.76 69.61C52.15 73.18 37.5 69 35 68C33.6339 67.4535 31.88 66.12 32.83 64.92C51.5 57.5 25.14 39 25.14 61.26C25.03 62.41 23.3976 61.7671 22.5 61.26C18.5 59 11 53.01 7.55999 46.09Z" fill="#6F8437" stroke="#6F8437" stroke-miterlimit="10"/>
<path d="M33.6225 101.497C35.2819 99.8175 36.6637 98.3117 37.7678 96.9789C37.7678 89.7272 40.2568 75.8903 28.9383 75.8903C17.6199 75.8903 20.3441 89.835 20.3441 97.0867C21.507 98.4913 22.8234 99.971 24.2934 101.526H26.9196L33.6225 101.506V101.497Z" fill="white" stroke="#6F8437" stroke-miterlimit="10"/>
<path d="M102.1 5.89C115.2 14.58 117.67 26.8 118.23 33.41C118.68 38.78 122.54 45.56 126.32 47.69C128.65 49.03 131.21 50.56 134.7 53.23C136 54.23 135.87 55.33 135.99 56.31C135.99 60.36 130.96 61.17 130.34 64.37C130.6 66.13 135.26 68.05 134.85 70.77C134.5 73.02 131.87 73.84 131.84 75.34C131.81 76.84 133.97 78.14 133.97 78.14C133.97 78.14 134.69 78.66 134.7 80.1C134.71 81.54 133.57 82.18 132.62 84.68C131.85 89.38 137.73 93.03 134.94 97.59C133.58 99.86 130.97 101.63 126.47 102.01C117.59 102.55 108 103 99.42 107.23C90.5 113 81 120.5 84.5 135.5C86.5 142 96.47 148.48 105 149C112.06 149.52 120.109 148.947 124 144.5C127.5 140.5 125 133 125 133H134.94C134.94 133 135.726 138.811 134.5 145.5C133.12 153.03 125.598 158 115.53 159.03C95.1 161.12 83.07 154.43 79.66 153.03C65.5 145.5 50.85 132.29 50.85 114.81C50.85 90.29 69.76 66.12 69.76 66.12L86.98 45.68C97.41 31.33 102.01 31.23 102.11 5.88L102.1 5.89Z" fill="#6F8437"/>
<path d="M33.5245 102.702H24.3423V105.446H33.5245V102.702Z" fill="white" stroke="#6F8437" stroke-miterlimit="10"/>
<path d="M32.3584 106.622H25.5183V108.66H32.3584V106.622Z" fill="white" stroke="#6F8437" stroke-miterlimit="10"/>
<path d="M27.4488 93.9313C26.9196 92.3241 24.9989 92.1967 24.9989 93.9411C25.5183 96.3909 31.3882 96.5967 31.7312 94.5486C32.0742 92.5005 30.7708 90.8738 29.0755 93.7157C27.3802 96.5575 30.5455 101.497 30.5455 101.497H26.9196C26.9196 101.497 27.4488 97.7237 27.4488 93.9313Z" fill="white" stroke="#6F8437" stroke-miterlimit="10"/>
<path d="M31.8436 101.13C33.5369 99.4167 34.9469 97.88 36.0736 96.52C36.0736 89.12 38.6136 75 27.0636 75C15.5136 75 18.2936 89.23 18.2936 96.63C19.4802 98.0633 20.8236 99.5733 22.3236 101.16H25.0036L31.8436 101.14V101.13Z" fill="white" stroke="#6F8437" stroke-miterlimit="10"/>
<path d="M31.7435 102.36H22.3735V105.16H31.7435V102.36Z" fill="white" stroke="#6F8437" stroke-miterlimit="10"/>
<path d="M30.5535 106.36H23.5735V108.44H30.5535V106.36Z" fill="white" stroke="#6F8437" stroke-miterlimit="10"/>
<path d="M25.5436 93.41C25.0036 91.77 23.0436 91.64 23.0436 93.42C23.5736 95.92 29.5636 96.13 29.9136 94.04C30.2636 91.95 28.9336 90.29 27.2036 93.19C25.4736 96.09 28.7036 101.13 28.7036 101.13H25.0036C25.0036 101.13 25.5436 97.28 25.5436 93.41Z" fill="white" stroke="#6F8437" stroke-miterlimit="10"/>
<path d="M45.5078 29.8906C44.3672 28.5156 43.7969 27.0547 43.7969 25.5078C43.7969 23.5234 44.5781 21.9062 46.1406 20.6562C47.7188 19.4062 49.75 18.7812 52.2344 18.7812C54.7969 18.7812 56.9297 19.4766 58.6328 20.8672C60.3516 22.2578 61.2109 23.9922 61.2109 26.0703C61.2109 27.5234 60.8516 28.7969 60.1328 29.8906C59.4141 30.9688 58.1875 32.0938 56.4531 33.2656L53.9688 34.9297C53.1562 35.4766 52.4297 36.1875 51.7891 37.0625C51.1641 37.9219 50.8672 38.6172 50.8984 39.1484L50.9688 40.4375C50.9844 40.6562 50.9141 40.8516 50.7578 41.0234C50.6172 41.1797 50.4297 41.25 50.1953 41.2344C49.8359 41.2188 49.5156 40.9609 49.2344 40.4609C48.9531 39.9609 48.8125 39.3906 48.8125 38.75C48.8125 36.6094 50 34.3281 52.375 31.9062C53.9375 30.3125 54.9844 29.0547 55.5156 28.1328C56.0625 27.2109 56.3359 26.2031 56.3359 25.1094C56.3359 23.7812 55.9453 22.7109 55.1641 21.8984C54.3828 21.0703 53.3516 20.6562 52.0703 20.6562C50.9922 20.6562 50.0625 21 49.2812 21.6875C48.5 22.3594 48.1094 23.1719 48.1094 24.125C48.1094 25.1406 48.75 26.0312 50.0312 26.7969C49.8906 26.8906 49.8125 26.9453 49.7969 26.9609L48.5312 27.6875C47.625 28.2031 46.6172 28.9375 45.5078 29.8906ZM59.7578 20.1641C62.0547 21.8516 63.2031 24 63.2031 26.6094C63.2031 28.3438 62.6406 29.9531 61.5156 31.4375C60.9375 32.2031 59.2656 33.6094 56.5 35.6562L55.1875 36.6172C53.5938 37.8047 52.7969 38.9297 52.7969 39.9922C52.7969 40.5391 53.0078 41.1797 53.4297 41.9141L52.5859 41.6797C52.3047 41.1328 52.1641 40.5703 52.1641 39.9922C52.1641 39.1641 52.4453 38.4062 53.0078 37.7188C53.5703 37.0312 54.5938 36.1719 56.0781 35.1406C58.5938 33.4219 60.3203 31.9375 61.2578 30.6875C62.1953 29.4219 62.6641 27.9688 62.6641 26.3281C62.6641 25.125 62.3828 23.9922 61.8203 22.9297C61.2734 21.8516 60.5312 21.0078 59.5938 20.3984L59.7578 20.1641ZM52.9375 27.1953L52.4219 27.4766C50.125 28.8047 48.3828 29.9141 47.1953 30.8047L46.9844 30.9453L46.6094 30.4531L46.8438 30.2891C48.9219 28.8359 50.5469 27.8047 51.7188 27.1953C50.4375 26.3828 49.7969 25.3281 49.7969 24.0312C49.7969 23.3906 50.0547 22.8516 50.5703 22.4141C51.0859 21.9609 51.7266 21.7344 52.4922 21.7344C53.9766 21.7344 55.0859 22.5781 55.8203 24.2656H55.6797C54.7266 23 53.6406 22.3672 52.4219 22.3672C51.0781 22.3672 50.4062 22.9688 50.4062 24.1719C50.4062 25.4688 51.25 26.4766 52.9375 27.1953ZM52.3516 42.3594C53.1953 42.3594 53.9141 42.6562 54.5078 43.25C55.1016 43.8438 55.3984 44.5625 55.3984 45.4062C55.3984 46.2344 55.1016 46.9453 54.5078 47.5391C53.9141 48.1328 53.1953 48.4297 52.3516 48.4297C51.5234 48.4297 50.8125 48.1328 50.2188 47.5391C49.625 46.9453 49.3281 46.2344 49.3281 45.4062C49.3281 44.5625 49.625 43.8438 50.2188 43.25C50.8125 42.6562 51.5234 42.3594 52.3516 42.3594ZM56.1719 43.3438C57.0469 44.1406 57.4844 45.1406 57.4844 46.3438C57.4844 47.4062 57.0859 48.3359 56.2891 49.1328C55.5078 49.9297 54.5859 50.3281 53.5234 50.3281C52.2734 50.3281 51.2578 49.8594 50.4766 48.9219L50.6172 48.7578C51.6172 49.3516 52.5312 49.6484 53.3594 49.6484C54.3281 49.6484 55.1641 49.3125 55.8672 48.6406C56.5703 47.9531 56.9219 47.1406 56.9219 46.2031C56.9219 45.3281 56.6094 44.4297 55.9844 43.5078L56.1719 43.3438Z" fill="white"/>
</g>
<defs>
<clipPath id="clip0_22_46">
<rect width="155.42" height="159.44" fill="white"/>
</clipPath>
</defs>
</svg>
