<svg width="308" height="140" viewBox="0 0 308 140" fill="none" xmlns="http://www.w3.org/2000/svg">
<g clip-path="url(#clip0_80_891)">
<path d="M76.5246 2.92682C76.5246 2.92682 29.5664 -12.5193 8.00903 32.9908C8.6925 35.797 11.5872 39.166 17.6901 43.4195C23.3187 32.1626 39.4003 41.4093 32.5656 51.8622C39.7058 54.4673 45.5837 54.2904 52.4585 50.7686C64.2303 34.8723 83.6247 22.5138 76.5246 2.93486V2.92682Z" fill="#6F8437" stroke="#6F8437" stroke-width="1.53615" stroke-miterlimit="10"/>
<path d="M6.07913 37.0593C6.07913 37.0593 -12.1654 87.7073 41.0566 106.715C28.9471 82.8186 49.6602 55.9709 49.6602 55.9709C41.933 58.8414 30.1533 55.4804 28.1431 54.6764C27.0446 54.237 25.6343 53.1647 26.3982 52.1999C41.4104 46.2337 20.2148 31.3585 20.2148 49.257C20.1264 50.1817 18.8138 49.6648 18.0921 49.257C14.8758 47.4398 8.84517 42.6234 6.07913 37.0593Z" fill="#6F8437" stroke="#6F8437" stroke-width="1.53615" stroke-miterlimit="10"/>
<path d="M27.0352 81.6097C28.3694 80.2597 29.4805 79.0489 30.3682 77.9773C30.3682 72.1464 32.3697 61.0206 23.2687 61.0206C14.1677 61.0206 16.3583 72.2331 16.3583 78.0639C17.2933 79.1933 18.3518 80.3831 19.5338 81.6333H21.6455L27.0352 81.6176V81.6097Z" fill="white" stroke="#6F8437" stroke-width="1.53615" stroke-miterlimit="10"/>
<path d="M82.0963 4.73595C92.6297 11.7233 94.6158 21.5489 95.0661 26.8638C95.4279 31.1816 98.5316 36.6332 101.571 38.3458C103.445 39.4233 105.503 40.6535 108.309 42.8003C109.355 43.6044 109.25 44.4889 109.347 45.2769C109.347 48.5333 105.302 49.1846 104.803 51.7576C105.013 53.1728 108.76 54.7166 108.43 56.9036C108.148 58.7128 106.034 59.3721 106.01 60.5782C105.985 61.7843 107.722 62.8296 107.722 62.8296C107.722 62.8296 108.301 63.2477 108.309 64.4056C108.317 65.5634 107.401 66.078 106.637 68.0882C106.018 71.8673 110.746 74.8021 108.502 78.4686C107.409 80.2939 105.31 81.7171 101.692 82.0226C94.5515 82.4568 86.8403 82.8186 79.9413 86.2198C72.7689 90.8593 65.1302 96.8897 67.9445 108.951C69.5526 114.177 77.5693 119.387 84.4281 119.806C90.1049 120.224 96.5769 119.763 99.7056 116.187C102.52 112.971 100.51 106.941 100.51 106.941H108.502C108.502 106.941 109.134 111.613 108.148 116.991C107.039 123.046 100.991 127.042 92.8951 127.87C76.4677 129.551 66.7946 124.172 64.0527 123.046C52.667 116.991 40.8872 106.37 40.8872 92.3146C40.8872 72.599 56.0923 53.1647 56.0923 53.1647L69.9386 36.7297C78.3251 25.1913 82.0239 25.1109 82.1043 4.72791L82.0963 4.73595Z" fill="#6F8437"/>
<path d="M26.9564 82.5789H19.5732V84.7851H26.9564V82.5789Z" fill="white" stroke="#6F8437" stroke-width="1.53615" stroke-miterlimit="10"/>
<path d="M26.0185 85.7307H20.5186V87.3696H26.0185V85.7307Z" fill="white" stroke="#6F8437" stroke-width="1.53615" stroke-miterlimit="10"/>
<path d="M22.0712 75.5267C21.6457 74.2345 20.1013 74.132 20.1013 75.5346C20.5189 77.5045 25.2388 77.6699 25.5146 76.0231C25.7904 74.3763 24.7424 73.0683 23.3792 75.3534C22.0161 77.6384 24.5612 81.6097 24.5612 81.6097H21.6457C21.6457 81.6097 22.0712 78.5761 22.0712 75.5267Z" fill="white" stroke="#6F8437" stroke-width="1.53615" stroke-miterlimit="10"/>
<path d="M25.6047 81.3151C26.9663 79.9374 28.1 78.7019 29.006 77.6083C29.006 71.6583 31.0483 60.3049 21.7612 60.3049C12.4741 60.3049 14.7094 71.7467 14.7094 77.6968C15.6636 78.8493 16.7438 80.0634 17.9499 81.3392H20.1048L25.6047 81.3231V81.3151Z" fill="white" stroke="#6F8437" stroke-width="1.53615" stroke-miterlimit="10"/>
<path d="M25.5245 82.3041H17.9902V84.5555H25.5245V82.3041Z" fill="white" stroke="#6F8437" stroke-width="1.53615" stroke-miterlimit="10"/>
<path d="M24.5676 85.5203H18.9551V87.1927H24.5676V85.5203Z" fill="white" stroke="#6F8437" stroke-width="1.53615" stroke-miterlimit="10"/>
<path d="M20.539 75.1077C20.1048 73.789 18.5288 73.6845 18.5288 75.1157C18.955 77.1259 23.7714 77.2947 24.0528 75.6142C24.3343 73.9337 23.2648 72.599 21.8738 74.9308C20.4827 77.2626 23.0799 81.315 23.0799 81.315H20.1048C20.1048 81.315 20.539 78.2194 20.539 75.1077Z" fill="white" stroke="#6F8437" stroke-width="1.53615" stroke-miterlimit="10"/>
<path d="M36.592 24.034C35.6749 22.9284 35.2163 21.7537 35.2163 20.5099C35.2163 18.9144 35.8445 17.614 37.1009 16.609C38.3698 15.6039 40.0031 15.1013 42.0007 15.1013C44.0612 15.1013 45.7761 15.6604 47.1456 16.7786C48.5276 17.8967 49.2186 19.2913 49.2186 20.9622C49.2186 22.1306 48.9296 23.1546 48.3517 24.034C47.7738 24.9009 46.7875 25.8055 45.3929 26.7477L43.3953 28.0857C42.742 28.5255 42.1578 29.0971 41.6427 29.8006C41.1401 30.4916 40.9014 31.0507 40.9265 31.4779L40.9831 32.5144C40.9956 32.6903 40.9391 32.8473 40.8135 32.9855C40.7004 33.1111 40.5496 33.1677 40.3612 33.1551C40.0722 33.1425 39.8146 32.9352 39.5885 32.5332C39.3623 32.1312 39.2493 31.6726 39.2493 31.1575C39.2493 29.4363 40.2041 27.602 42.1138 25.6547C43.3702 24.3732 44.2119 23.3619 44.6391 22.6206C45.0788 21.8794 45.2987 21.069 45.2987 20.1896C45.2987 19.1217 44.9846 18.2611 44.3564 17.6078C43.7282 16.9419 42.899 16.609 41.8688 16.609C41.0019 16.609 40.2544 16.8854 39.6262 17.4382C38.998 17.9784 38.6839 18.6317 38.6839 19.3981C38.6839 20.2147 39.199 20.9308 40.2292 21.5464C40.1162 21.6218 40.0533 21.6658 40.0408 21.6783L39.0231 22.2625C38.2944 22.6771 37.4841 23.2676 36.592 24.034ZM48.0502 16.2132C49.897 17.5701 50.8205 19.2976 50.8205 21.3957C50.8205 22.7902 50.3682 24.0843 49.4636 25.2778C48.9987 25.8934 47.6544 27.0241 45.4306 28.6699L44.3753 29.4426C43.0938 30.3974 42.453 31.302 42.453 32.1563C42.453 32.596 42.6226 33.1111 42.9619 33.7016L42.2834 33.5132C42.0573 33.0734 41.9442 32.6212 41.9442 32.1563C41.9442 31.4904 42.1703 30.8811 42.6226 30.3283C43.0749 29.7755 43.8979 29.0845 45.0914 28.2553C47.1142 26.8734 48.5025 25.6798 49.2563 24.6747C50.0101 23.6571 50.387 22.4887 50.387 21.1695C50.387 20.2021 50.1609 19.2913 49.7086 18.437C49.2688 17.5701 48.6721 16.8916 47.9182 16.4017L48.0502 16.2132ZM42.5661 21.8668L42.1515 22.0929C40.3046 23.1608 38.9038 24.0528 37.9489 24.769L37.7793 24.882L37.4778 24.4863L37.6662 24.3544C39.3372 23.186 40.6438 22.3568 41.5861 21.8668C40.5559 21.2135 40.0408 20.3655 40.0408 19.3227C40.0408 18.8076 40.2481 18.3741 40.6627 18.0224C41.0773 17.658 41.5924 17.4759 42.208 17.4759C43.4016 17.4759 44.2936 18.1543 44.8841 19.5111H44.771C44.0046 18.4935 43.1315 17.9847 42.1515 17.9847C41.071 17.9847 40.5308 18.4684 40.5308 19.4358C40.5308 20.4785 41.2092 21.2889 42.5661 21.8668ZM42.095 34.0597C42.7734 34.0597 43.3513 34.2984 43.8288 34.7758C44.3062 35.2532 44.5449 35.8311 44.5449 36.5096C44.5449 37.1754 44.3062 37.7471 43.8288 38.2245C43.3513 38.7019 42.7734 38.9406 42.095 38.9406C41.4291 38.9406 40.8574 38.7019 40.38 38.2245C39.9026 37.7471 39.6639 37.1754 39.6639 36.5096C39.6639 35.8311 39.9026 35.2532 40.38 34.7758C40.8574 34.2984 41.4291 34.0597 42.095 34.0597ZM45.1668 34.8512C45.8704 35.4919 46.2221 36.296 46.2221 37.2634C46.2221 38.1177 45.9018 38.8652 45.261 39.506C44.6328 40.1467 43.8916 40.4671 43.0372 40.4671C42.0321 40.4671 41.2155 40.0902 40.5873 39.3364L40.7004 39.2044C41.5045 39.6818 42.2394 39.9206 42.9053 39.9206C43.6843 39.9206 44.3564 39.6504 44.9218 39.1102C45.4872 38.5574 45.7698 37.9041 45.7698 37.1503C45.7698 36.4467 45.5186 35.7243 45.016 34.9831L45.1668 34.8512Z" fill="white"/>
</g>
<path d="M144.238 82.73V80.4933H157.339V82.73H153.824L153.185 83.3691V107.653C153.185 111.019 152.503 113.916 151.14 116.344C149.819 118.773 147.923 120.647 145.452 121.968C143.024 123.289 140.148 123.949 136.825 123.949C132.991 123.949 129.71 123.267 126.984 121.904C124.3 120.498 122.233 118.624 120.785 116.28C119.379 113.937 118.676 111.317 118.676 108.42V83.3691L118.037 82.73H114.522V80.4933H132.735V82.73H129.22L128.581 83.3691V107.014C128.581 109.57 128.922 111.892 129.604 113.98C130.328 116.025 131.457 117.665 132.991 118.901C134.524 120.136 136.548 120.754 139.062 120.754C141.064 120.754 142.917 120.243 144.621 119.22C146.326 118.198 147.689 116.706 148.711 114.747C149.777 112.787 150.309 110.422 150.309 107.653V83.3691L149.67 82.73H144.238ZM179.445 82.73H175.93L175.291 83.3691V120.434L175.93 121.073H179.445V123.31H161.231V121.073H164.746L165.385 120.434V83.3691L164.746 82.73H161.231V80.4933H179.445V82.73ZM183.294 123.31V121.393L205.533 83.3691L204.894 82.73H200.293C198.248 82.73 196.331 82.9856 194.541 83.4969C192.794 84.0081 191.197 84.8815 189.748 86.117C188.3 87.3525 187.064 89.0993 186.042 91.3573L183.933 90.7182L186.234 80.4933H217.292V82.4105L195.052 120.434L195.692 121.073H202.913C205.98 121.073 208.792 120.264 211.348 118.645C213.905 117.026 215.95 114.534 217.483 111.168H219.72L216.972 123.31H183.294ZM221.3 123.31V121.393L243.539 83.3691L242.9 82.73H238.299C236.254 82.73 234.337 82.9856 232.548 83.4969C230.801 84.0081 229.203 84.8815 227.755 86.117C226.306 87.3525 225.071 89.0993 224.048 91.3573L221.939 90.7182L224.24 80.4933H255.298V82.4105L233.059 120.434L233.698 121.073H240.919C243.987 121.073 246.799 120.264 249.355 118.645C251.911 117.026 253.956 114.534 255.49 111.168H257.726L254.978 123.31H221.3ZM282.313 79.8543C286.871 79.8543 290.769 80.7915 294.007 82.6661C297.245 84.5407 299.716 87.1395 301.42 90.4626C303.167 93.7857 304.04 97.5987 304.04 101.902C304.04 105.054 303.508 107.973 302.443 110.657C301.42 113.341 299.95 115.684 298.033 117.686C296.159 119.646 293.879 121.18 291.195 122.288C288.554 123.395 285.593 123.949 282.313 123.949C277.754 123.949 273.856 123.012 270.618 121.137C267.38 119.263 264.888 116.664 263.141 113.341C261.437 110.018 260.585 106.205 260.585 101.902C260.585 98.749 261.096 95.8307 262.118 93.1466C263.183 90.4626 264.653 88.1407 266.528 86.1809C268.445 84.1785 270.746 82.6235 273.43 81.5158C276.114 80.4081 279.075 79.8543 282.313 79.8543ZM282.952 121.393C285.039 121.393 286.871 120.626 288.447 119.092C290.024 117.516 291.259 115.322 292.154 112.51C293.049 109.656 293.496 106.332 293.496 102.541C293.496 98.8342 292.963 95.4685 291.898 92.4437C290.876 89.3762 289.47 86.9478 287.681 85.1584C285.891 83.3265 283.889 82.4105 281.673 82.4105C279.629 82.4105 277.797 83.1987 276.178 84.775C274.601 86.3087 273.366 88.5028 272.471 91.3573C271.576 94.1691 271.129 97.4709 271.129 101.263C271.129 104.969 271.64 108.356 272.663 111.424C273.728 114.448 275.155 116.877 276.944 118.709C278.734 120.498 280.736 121.393 282.952 121.393Z" fill="#6F8437"/>
<defs>
<clipPath id="clip0_80_891">
<rect width="124.97" height="128.2" fill="white"/>
</clipPath>
</defs>
</svg>
