<svg width="167" height="171" viewBox="0 0 167 171" fill="none" xmlns="http://www.w3.org/2000/svg">
<rect width="166" height="171" rx="21" fill="#F4F4F4"/>
<path fill-rule="evenodd" clip-rule="evenodd" d="M80.9287 40.7213C73.9614 36.5417 66.122 34.0302 58.0231 33.383C49.9242 32.7358 41.7854 33.9704 34.2428 36.9904C33.1535 37.424 32.2197 38.175 31.5625 39.146C30.9053 40.1169 30.5551 41.263 30.5574 42.4354V101.221C30.5574 105.154 34.5353 107.846 38.1905 106.384C44.3673 103.914 51.0316 102.906 57.6626 103.438C64.2937 103.969 70.712 106.027 76.4164 109.449L82.1387 112.878C82.5773 113.145 83.0462 113.256 83.4949 113.251C83.9744 113.26 84.4466 113.132 84.8561 112.883L90.5734 109.449C96.2778 106.027 102.696 103.969 109.327 103.438C115.958 102.906 122.622 103.914 128.799 106.384C129.644 106.722 130.558 106.847 131.463 106.75C132.367 106.653 133.234 106.335 133.987 105.825C134.74 105.315 135.357 104.628 135.783 103.825C136.209 103.021 136.432 102.126 136.432 101.216V42.4354C136.432 40.0356 134.97 37.8828 132.747 36.9904C125.204 33.9728 117.066 32.7402 108.968 33.3892C100.87 34.0382 93.0319 36.551 86.0661 40.7313L83.4949 42.2741L80.9287 40.7213ZM87.2812 52.7708C87.2812 51.768 86.8828 50.8062 86.1737 50.0971C85.4646 49.388 84.5028 48.9896 83.4999 48.9896C82.4971 48.9896 81.5353 49.388 80.8262 50.0971C80.1171 50.8062 79.7187 51.768 79.7187 52.7708V100.667C79.7187 101.67 80.1171 102.631 80.8262 103.34C81.5353 104.05 82.4971 104.448 83.4999 104.448C84.5028 104.448 85.4646 104.05 86.1737 103.34C86.8828 102.631 87.2812 101.67 87.2812 100.667V52.7708Z" fill="#A6C253"/>
<path d="M36.7385 116.003C41.7502 113.08 47.4481 111.54 53.25 111.54C59.0519 111.54 64.7498 113.08 69.7615 116.003L75.2418 119.2C77.7482 120.662 80.5981 121.433 83.5 121.433C86.4019 121.433 89.2518 120.662 91.7583 119.2L97.2385 116.003C102.25 113.08 107.948 111.54 113.75 111.54C119.552 111.54 125.25 113.08 130.261 116.003L130.781 116.306C131.21 116.556 131.585 116.888 131.886 117.284C132.187 117.679 132.406 118.13 132.533 118.61C132.659 119.091 132.69 119.591 132.623 120.083C132.556 120.576 132.392 121.05 132.142 121.479C131.892 121.908 131.559 122.283 131.164 122.584C130.769 122.884 130.318 123.104 129.838 123.231C129.357 123.357 128.857 123.388 128.365 123.321C127.872 123.253 127.398 123.09 126.969 122.84L126.45 122.537C122.595 120.289 118.213 119.105 113.75 119.105C109.287 119.105 104.905 120.289 101.05 122.537L95.5647 125.734C91.9027 127.87 87.7393 128.995 83.5 128.995C79.2607 128.995 75.0973 127.87 71.4353 125.734L65.95 122.537C62.0951 120.289 57.7126 119.105 53.25 119.105C48.7875 119.105 44.4049 120.289 40.55 122.537L40.0308 122.84C39.1643 123.345 38.1325 123.486 37.1625 123.231C36.1924 122.975 35.3634 122.345 34.858 121.479C34.3526 120.612 34.212 119.58 34.4673 118.61C34.7226 117.64 35.3528 116.811 36.2193 116.306L36.7385 116.003Z" fill="#A6C253"/>
</svg>
