<svg width="167" height="171" viewBox="0 0 167 171" fill="none" xmlns="http://www.w3.org/2000/svg">
<rect width="167" height="171" rx="21" fill="#F4F4F4"/>
<path d="M86.7772 99.003C87.483 97.188 87.0292 95.1209 85.6176 93.7092L75.0805 83.3234L75.2317 83.1721C83.7757 73.6811 90.1575 62.4484 93.9363 50.25H103.717C106.44 50.25 108.708 47.9813 108.708 45.2588V45.158C108.708 42.4355 106.44 40.1667 103.717 40.1667H73.4167V35.125C73.4167 32.3521 71.148 30.0834 68.3751 30.0834C65.6022 30.0834 63.3334 32.3521 63.3334 35.125V40.1667H33.033C30.3105 40.1667 28.0417 42.4355 28.0417 45.158C28.0417 47.9309 30.3105 50.1492 33.033 50.1492H84.3572C80.8936 60.1516 75.4591 69.3578 68.3751 77.223C64.2913 72.7359 60.863 67.8455 57.9892 62.703C57.6079 61.9905 57.0412 61.3942 56.349 60.9771C55.6568 60.56 54.8649 60.3376 54.0567 60.3334C50.578 60.3334 48.3597 64.1146 50.0738 67.1396C53.2501 72.8367 57.1322 78.2817 61.6697 83.3234L39.6376 105.053C39.1589 105.518 38.7783 106.075 38.5185 106.689C38.2586 107.304 38.1247 107.965 38.1247 108.633C38.1247 109.3 38.2586 109.961 38.5185 110.576C38.7783 111.19 39.1589 111.747 39.6376 112.212C41.6038 114.178 44.7801 114.178 46.7967 112.212L68.3751 90.5834L78.5592 100.768C81.1305 103.339 85.5167 102.381 86.7772 99.003ZM111.229 70.4167C108.204 70.4167 105.482 72.2821 104.423 75.1559L85.9201 124.564C84.7101 127.64 87.0292 130.917 90.3063 130.917C92.2726 130.917 94.0372 129.707 94.743 127.841L99.2301 115.792H123.178L127.715 127.841C128.421 129.656 130.186 130.917 132.152 130.917C135.429 130.917 137.748 127.64 136.589 124.564L118.086 75.1559C116.977 72.2821 114.254 70.4167 111.229 70.4167ZM103.062 105.708L111.229 83.878L119.397 105.708H103.062Z" fill="#A6C253"/>
</svg>
