<svg width="167" height="171" viewBox="0 0 167 171" fill="none" xmlns="http://www.w3.org/2000/svg">
<rect x="1" width="166" height="171" rx="21" fill="#F4F4F4"/>
<path d="M60.8124 27.08V44.7258H78.4583V54.8091H60.8124V72.455H50.7291V54.8091H33.0833V44.7258H50.7291V27.08H60.8124ZM88.5416 44.7258H133.917V54.8091H88.5416V44.7258ZM77.3289 92.6771L63.0711 106.94L78.1406 122.004L71.0067 129.138L55.9371 114.064L41.6793 128.332L34.5504 121.198L48.8082 106.94L35.357 93.4888L42.491 86.3548L55.9371 99.806L70.2 85.5482L77.3289 92.6771ZM106.187 87.5699H116.291V97.6734H106.187V87.5699ZM88.5416 102.705H133.917V112.788H88.5416V102.705ZM106.187 117.82H116.291V127.923H106.187V117.82Z" fill="#A6C253"/>
</svg>
