<svg width="167" height="171" viewBox="0 0 167 171" fill="none" xmlns="http://www.w3.org/2000/svg">
<rect width="167" height="171" rx="21" fill="#F4F4F4"/>
<path d="M37.3516 81.9844V102H31.2109V68.9766H40.4688L46.375 87.4453C46.6406 88.4766 46.9141 89.5156 47.1953 90.5625C47.4766 91.5938 47.75 92.625 48.0156 93.6562C48.1875 93.0625 48.3516 92.4766 48.5078 91.8984C48.6641 91.3047 48.8203 90.7109 48.9766 90.1172C49.1484 89.5234 49.3203 88.9375 49.4922 88.3594L55.5625 68.9766H64.7734V102H58.6328V81.9844C58.6328 81.5312 58.6484 80.625 58.6797 79.2656C58.7266 77.8906 58.7891 76.3984 58.8672 74.7891C58.3203 76.8828 57.8359 78.6641 57.4141 80.1328C57.0078 81.6016 56.6719 82.75 56.4062 83.5781L50.4531 102H45.5312L39.5781 83.5781L37.0703 74.7891C37.1641 76.6016 37.2344 78.1094 37.2812 79.3125C37.3281 80.5 37.3516 81.3906 37.3516 81.9844Z" fill="#A6C253"/>
<path d="M100.469 92.5781C100.469 95.5781 99.3438 97.8984 97.0938 99.5391C94.8438 101.18 91.7188 102 87.7188 102H71.1953V68.9766H86.3125C90.3438 68.9766 93.3906 69.6797 95.4531 71.0859C97.5312 72.4766 98.5703 74.5391 98.5703 77.2734C98.5703 79.1484 98.0469 80.7344 97 82.0312C95.9688 83.3125 94.3906 84.1797 92.2656 84.6328C94.9375 84.9453 96.9688 85.7891 98.3594 87.1641C99.7656 88.5234 100.469 90.3281 100.469 92.5781ZM91.6094 78.2109C91.6094 76.7266 91.1328 75.6719 90.1797 75.0469C89.2422 74.4219 87.8438 74.1094 85.9844 74.1094H78.1094V82.2891H86.0312C87.9844 82.2891 89.3984 81.9531 90.2734 81.2812C91.1641 80.5938 91.6094 79.5703 91.6094 78.2109ZM93.5312 92.0391C93.5312 88.9453 91.3125 87.3984 86.875 87.3984H78.1094V96.8672H87.1328C89.3516 96.8672 90.9688 96.4688 91.9844 95.6719C93.0156 94.8594 93.5312 93.6484 93.5312 92.0391Z" fill="#A6C253"/>
<path d="M120.789 74.3203V102H113.875V74.3203H103.211V68.9766H131.477V74.3203H120.789Z" fill="#A6C253"/>
<path d="M142.141 68.9766V102H135.227V68.9766H142.141Z" fill="#A6C253"/>
</svg>
