<svg width="248" height="142" viewBox="0 0 248 142" fill="none" xmlns="http://www.w3.org/2000/svg">
<g clip-path="url(#clip0_29_1414)" filter="url(#filter0_d_29_1414)">
<path d="M69.1945 3.64651C69.1945 3.64651 26.7341 -10.3204 7.24158 30.8314C7.85958 33.3688 10.477 36.4152 15.9954 40.2614C21.0848 30.0825 35.6261 38.4437 29.4461 47.8955C35.9024 50.2512 41.2172 50.0912 47.4336 46.9067C58.0778 32.5327 75.6145 21.3577 69.1945 3.65378V3.64651Z" fill="url(#paint0_linear_29_1414)" stroke="url(#paint1_linear_29_1414)" stroke-width="0.727062" stroke-miterlimit="10"/>
<path d="M5.49669 34.5103C5.49669 34.5103 -11.0004 80.3079 37.1239 97.4957C26.1743 75.8874 44.9035 51.6108 44.9035 51.6108C37.9164 54.2064 27.2649 51.1673 25.4473 50.4402C24.454 50.0429 23.1788 49.0733 23.8695 48.2008C37.4438 42.806 18.2784 29.3554 18.2784 45.5398C18.1985 46.3759 17.0116 45.9085 16.359 45.5398C13.4507 43.8966 7.99779 39.5415 5.49669 34.5103Z" fill="url(#paint2_linear_29_1414)" stroke="url(#paint3_linear_29_1414)" stroke-width="0.727062" stroke-miterlimit="10"/>
<path d="M24.4457 74.7943C25.6521 73.5735 26.6567 72.4787 27.4595 71.5097C27.4595 66.2373 29.2692 56.1769 21.04 56.1769C12.8107 56.1769 14.7914 66.3157 14.7914 71.5881C15.6369 72.6093 16.594 73.6852 17.6628 74.8156H19.5722L24.4457 74.8014V74.7943Z" fill="white" stroke="url(#paint4_linear_29_1414)" stroke-width="0.727062" stroke-miterlimit="10"/>
<path d="M74.2331 5.28242C83.7576 11.6006 85.5535 20.4853 85.9606 25.2912C86.2878 29.1955 89.0943 34.125 91.8426 35.6736C93.5366 36.6479 95.3979 37.7603 97.9354 39.7015C98.8805 40.4286 98.786 41.2284 98.8733 41.9409C98.8733 44.8855 95.2161 45.4744 94.7654 47.801C94.9544 49.0806 98.3425 50.4766 98.0444 52.4542C97.7899 54.0901 95.8778 54.6863 95.856 55.7769C95.8341 56.8675 97.4046 57.8127 97.4046 57.8127C97.4046 57.8127 97.9281 58.1907 97.9354 59.2377C97.9426 60.2847 97.1138 60.75 96.4231 62.5676C95.8632 65.9848 100.138 68.6386 98.1099 71.954C97.121 73.6044 95.2234 74.8914 91.9516 75.1676C85.4953 75.5602 78.5228 75.8874 72.2846 78.9629C65.7992 83.158 58.8921 88.611 61.4368 99.5169C62.891 104.243 70.1398 108.954 76.3416 109.332C81.4747 109.71 87.3267 109.294 90.1558 106.061C92.7005 103.152 90.8829 97.6993 90.8829 97.6993H98.1099C98.1099 97.6993 98.6813 101.924 97.7899 106.788C96.7866 112.262 91.3179 115.876 83.9976 116.625C69.1437 118.144 60.3971 113.28 57.9179 112.262C47.6227 106.788 36.9712 97.1831 36.9712 84.474C36.9712 66.6465 50.7199 49.0734 50.7199 49.0734L63.24 34.2122C70.8232 23.7789 74.1677 23.7062 74.2404 5.27515L74.2331 5.28242Z" fill="url(#paint5_linear_29_1414)"/>
<path d="M24.3745 75.6707H17.6985V77.6656H24.3745V75.6707Z" fill="white" stroke="url(#paint6_linear_29_1414)" stroke-width="0.727062" stroke-miterlimit="10"/>
<path d="M23.5265 78.5206H18.5533V80.0026H23.5265V78.5206Z" fill="white" stroke="url(#paint7_linear_29_1414)" stroke-width="0.727062" stroke-miterlimit="10"/>
<path d="M19.9571 69.2938C19.5724 68.1253 18.1759 68.0327 18.1759 69.301C18.5535 71.0822 22.8213 71.2318 23.0707 69.7427C23.3201 68.2536 22.3725 67.0709 21.1399 69.1371C19.9073 71.2033 22.2086 74.7942 22.2086 74.7942H19.5724C19.5724 74.7942 19.9571 72.0512 19.9571 69.2938Z" fill="white" stroke="url(#paint8_linear_29_1414)" stroke-width="0.727062" stroke-miterlimit="10"/>
<path d="M23.1523 74.5278C24.3834 73.2821 25.4086 72.1648 26.2278 71.176C26.2278 65.7958 28.0745 55.5297 19.6769 55.5297C11.2794 55.5297 13.3006 65.8758 13.3006 71.256C14.1634 72.2981 15.1401 73.396 16.2307 74.5496H18.1792L23.1523 74.5351V74.5278Z" fill="white" stroke="url(#paint9_linear_29_1414)" stroke-width="0.727062" stroke-miterlimit="10"/>
<path d="M23.0795 75.4221H16.267V77.4578H23.0795V75.4221Z" fill="white" stroke="url(#paint10_linear_29_1414)" stroke-width="0.727062" stroke-miterlimit="10"/>
<path d="M22.2144 78.3303H17.1395V79.8426H22.2144V78.3303Z" fill="white" stroke="url(#paint11_linear_29_1414)" stroke-width="0.727062" stroke-miterlimit="10"/>
<path d="M18.5718 68.9149C18.1792 67.7225 16.7542 67.628 16.7542 68.9222C17.1395 70.7398 21.4946 70.8925 21.7491 69.3729C22.0035 67.8534 21.0365 66.6465 19.7787 68.7549C18.5209 70.8634 20.8693 74.5278 20.8693 74.5278H18.1792C18.1792 74.5278 18.5718 71.7286 18.5718 68.9149Z" fill="white" stroke="url(#paint12_linear_29_1414)" stroke-width="0.727062" stroke-miterlimit="10"/>
<path d="M33.087 22.7324C32.2577 21.7326 31.843 20.6705 31.843 19.5458C31.843 18.103 32.411 16.9272 33.5471 16.0184C34.6945 15.1096 36.1713 14.6552 37.9776 14.6552C39.8407 14.6552 41.3914 15.1607 42.6297 16.1718C43.8793 17.1828 44.5041 18.4438 44.5041 19.9548C44.5041 21.0113 44.2428 21.9371 43.7203 22.7324C43.1977 23.5162 42.3059 24.3342 41.0449 25.1862L39.2386 26.3961C38.6479 26.7937 38.1196 27.3106 37.6538 27.9468C37.1994 28.5716 36.9836 29.0771 37.0063 29.4634L37.0574 30.4006C37.0688 30.5596 37.0177 30.7016 36.9041 30.8266C36.8018 30.9402 36.6655 30.9913 36.4951 30.98C36.2338 30.9686 36.0009 30.7812 35.7964 30.4176C35.5919 30.0541 35.4897 29.6394 35.4897 29.1737C35.4897 27.6173 36.3531 25.9587 38.0798 24.1978C39.2159 23.0391 39.977 22.1246 40.3633 21.4543C40.7609 20.7841 40.9597 20.0513 40.9597 19.2561C40.9597 18.2905 40.6757 17.5123 40.1077 16.9215C39.5397 16.3194 38.7899 16.0184 37.8583 16.0184C37.0745 16.0184 36.3985 16.2683 35.8305 16.7682C35.2625 17.2567 34.9785 17.8474 34.9785 18.5404C34.9785 19.2788 35.4442 19.9264 36.3758 20.483C36.2736 20.5512 36.2168 20.5909 36.2054 20.6023L35.2852 21.1305C34.6263 21.5054 33.8936 22.0394 33.087 22.7324ZM43.4476 15.6605C45.1176 16.8875 45.9526 18.4495 45.9526 20.3467C45.9526 21.6077 45.5436 22.7778 44.7257 23.857C44.3053 24.4137 43.0898 25.4361 41.079 26.9243L40.1247 27.623C38.966 28.4864 38.3866 29.3043 38.3866 30.0768C38.3866 30.4744 38.5399 30.9402 38.8467 31.4741L38.2332 31.3037C38.0287 30.9061 37.9265 30.4972 37.9265 30.0768C37.9265 29.4747 38.131 28.9237 38.5399 28.4239C38.9489 27.924 39.693 27.2992 40.7722 26.5494C42.6013 25.2998 43.8566 24.2206 44.5382 23.3117C45.2198 22.3915 45.5606 21.335 45.5606 20.1422C45.5606 19.2675 45.3561 18.4438 44.9472 17.6713C44.5496 16.8875 44.0099 16.274 43.3283 15.8309L43.4476 15.6605ZM38.4888 20.7727L38.1139 20.9772C36.444 21.9428 35.1773 22.7494 34.3139 23.3969L34.1605 23.4992L33.8879 23.1413L34.0583 23.022C35.5692 21.9655 36.7507 21.2158 37.6027 20.7727C36.6712 20.182 36.2054 19.4151 36.2054 18.4722C36.2054 18.0065 36.3928 17.6145 36.7677 17.2964C37.1426 16.967 37.6084 16.8023 38.1651 16.8023C39.2443 16.8023 40.0509 17.4157 40.5848 18.6426H40.4826C39.7896 17.7224 39 17.2624 38.1139 17.2624C37.1369 17.2624 36.6484 17.6997 36.6484 18.5745C36.6484 19.5174 37.2619 20.2501 38.4888 20.7727ZM38.0628 31.7979C38.6763 31.7979 39.1988 32.0138 39.6305 32.4455C40.0622 32.8771 40.2781 33.3997 40.2781 34.0132C40.2781 34.6153 40.0622 35.1322 39.6305 35.5639C39.1988 35.9956 38.6763 36.2114 38.0628 36.2114C37.4607 36.2114 36.9438 35.9956 36.5121 35.5639C36.0804 35.1322 35.8646 34.6153 35.8646 34.0132C35.8646 33.3997 36.0804 32.8771 36.5121 32.4455C36.9438 32.0138 37.4607 31.7979 38.0628 31.7979ZM40.8404 32.5136C41.4766 33.093 41.7947 33.8201 41.7947 34.6948C41.7947 35.4673 41.505 36.1432 40.9256 36.7226C40.3576 37.302 39.6873 37.5917 38.9148 37.5917C38.006 37.5917 37.2676 37.2509 36.6996 36.5693L36.8018 36.45C37.5289 36.8817 38.1935 37.0975 38.7955 37.0975C39.4999 37.0975 40.1077 36.8533 40.6189 36.3648C41.1301 35.8649 41.3857 35.2742 41.3857 34.5926C41.3857 33.9564 41.1585 33.3032 40.7041 32.6329L40.8404 32.5136Z" fill="white"/>
</g>
<g filter="url(#filter1_d_29_1414)">
<path d="M124.328 65.52V63.84H134.168V65.52H131.528L131.048 66V84.24C131.048 86.768 130.536 88.944 129.512 90.768C128.52 92.592 127.096 94 125.24 94.992C123.416 95.984 121.256 96.48 118.76 96.48C115.88 96.48 113.416 95.968 111.368 94.944C109.352 93.888 107.8 92.48 106.712 90.72C105.656 88.96 105.128 86.992 105.128 84.816V66L104.648 65.52H102.008V63.84H115.688V65.52H113.048L112.568 66V83.76C112.568 85.68 112.824 87.424 113.336 88.992C113.88 90.528 114.728 91.76 115.88 92.688C117.032 93.616 118.552 94.08 120.44 94.08C121.944 94.08 123.336 93.696 124.616 92.928C125.896 92.16 126.92 91.04 127.688 89.568C128.488 88.096 128.888 86.32 128.888 84.24V66L128.408 65.52H124.328ZM150.772 65.52H148.132L147.652 66V93.84L148.132 94.32H150.772V96H137.092V94.32H139.732L140.212 93.84V66L139.732 65.52H137.092V63.84H150.772V65.52ZM153.663 96V94.56L170.367 66L169.887 65.52H166.431C164.895 65.52 163.455 65.712 162.111 66.096C160.799 66.48 159.599 67.136 158.511 68.064C157.423 68.992 156.495 70.304 155.727 72L154.143 71.52L155.871 63.84H179.199V65.28L162.495 93.84L162.975 94.32H168.399C170.703 94.32 172.815 93.712 174.735 92.496C176.655 91.28 178.191 89.408 179.343 86.88H181.023L178.959 96H153.663ZM182.21 96V94.56L198.914 66L198.434 65.52H194.978C193.442 65.52 192.002 65.712 190.658 66.096C189.346 66.48 188.146 67.136 187.058 68.064C185.97 68.992 185.042 70.304 184.274 72L182.69 71.52L184.418 63.84H207.746V65.28L191.042 93.84L191.522 94.32H196.946C199.25 94.32 201.362 93.712 203.282 92.496C205.202 91.28 206.738 89.408 207.89 86.88H209.57L207.506 96H182.21ZM228.037 63.36C231.461 63.36 234.389 64.064 236.821 65.472C239.253 66.88 241.109 68.832 242.389 71.328C243.701 73.824 244.357 76.688 244.357 79.92C244.357 82.288 243.957 84.48 243.157 86.496C242.389 88.512 241.285 90.272 239.845 91.776C238.437 93.248 236.725 94.4 234.709 95.232C232.725 96.064 230.501 96.48 228.037 96.48C224.613 96.48 221.685 95.776 219.253 94.368C216.821 92.96 214.949 91.008 213.637 88.512C212.357 86.016 211.717 83.152 211.717 79.92C211.717 77.552 212.101 75.36 212.869 73.344C213.669 71.328 214.773 69.584 216.181 68.112C217.621 66.608 219.349 65.44 221.365 64.608C223.381 63.776 225.605 63.36 228.037 63.36ZM228.517 94.56C230.085 94.56 231.461 93.984 232.645 92.832C233.829 91.648 234.757 90 235.429 87.888C236.101 85.744 236.437 83.248 236.437 80.4C236.437 77.616 236.037 75.088 235.237 72.816C234.469 70.512 233.413 68.688 232.069 67.344C230.725 65.968 229.221 65.28 227.557 65.28C226.021 65.28 224.645 65.872 223.429 67.056C222.245 68.208 221.317 69.856 220.645 72C219.973 74.112 219.637 76.592 219.637 79.44C219.637 82.224 220.021 84.768 220.789 87.072C221.589 89.344 222.661 91.168 224.005 92.544C225.349 93.888 226.853 94.56 228.517 94.56Z" fill="url(#paint13_linear_29_1414)"/>
</g>
<g filter="url(#filter2_d_29_1414)">
<path d="M50.3027 132.996V135H40.2041V122.616H49.9424V124.62H42.7969V127.731H49.4062V129.735H42.7969V132.996H50.3027ZM55.9893 131.555L53.7568 135H51.1289L54.6094 130.087L51.2959 125.49H53.959L55.9893 128.602L58.0107 125.49H60.6914L57.3779 130.061L60.8848 135H58.2041L55.9893 131.555ZM71.2822 130.201C71.2822 131.789 70.9629 133.017 70.3242 133.884C69.6914 134.745 68.7949 135.176 67.6348 135.176C66.2578 135.176 65.2969 134.613 64.752 133.488H64.6992C64.7344 133.664 64.752 134.197 64.752 135.088V138.735H62.2822V127.679C62.2822 127.228 62.2764 126.82 62.2646 126.457C62.2529 126.094 62.2354 125.771 62.2119 125.49H64.6113C64.6348 125.561 64.6523 125.681 64.6641 125.851C64.6816 126.015 64.6934 126.202 64.6992 126.413C64.7109 126.624 64.7168 126.832 64.7168 127.037H64.752C65.0273 126.451 65.4199 126.015 65.9297 125.728C66.4395 125.435 67.0605 125.288 67.793 125.288C68.9004 125.288 69.7588 125.716 70.3682 126.571C70.9775 127.421 71.2822 128.631 71.2822 130.201ZM68.707 130.201C68.707 129.135 68.543 128.335 68.2148 127.802C67.8926 127.269 67.4033 127.002 66.7471 127.002C66.0908 127.002 65.5869 127.289 65.2354 127.863C64.8896 128.438 64.7168 129.24 64.7168 130.271C64.7168 131.297 64.8896 132.091 65.2354 132.653C65.5869 133.21 66.085 133.488 66.7295 133.488C67.3916 133.488 67.8867 133.216 68.2148 132.671C68.543 132.12 68.707 131.297 68.707 130.201ZM75.7559 121.957V135H73.2861V121.957H75.7559ZM87.3311 130.236C87.3311 131.777 86.9033 132.987 86.0479 133.866C85.1924 134.739 84.0088 135.176 82.4971 135.176C81.0146 135.176 79.8516 134.736 79.0078 133.857C78.1641 132.979 77.7422 131.771 77.7422 130.236C77.7422 128.707 78.1641 127.506 79.0078 126.633C79.8516 125.754 81.0322 125.314 82.5498 125.314C84.1025 125.314 85.2861 125.739 86.1006 126.589C86.9209 127.433 87.3311 128.648 87.3311 130.236ZM84.7471 130.236C84.7471 129.105 84.5625 128.285 84.1934 127.775C83.8242 127.266 83.2881 127.011 82.585 127.011C81.835 127.011 81.2725 127.28 80.8975 127.819C80.5225 128.353 80.335 129.158 80.335 130.236C80.335 131.297 80.5166 132.105 80.8799 132.662C81.249 133.213 81.7793 133.488 82.4707 133.488C83.2324 133.488 83.8008 133.219 84.1758 132.68C84.5566 132.135 84.7471 131.32 84.7471 130.236ZM91.7695 130.333V135H89.2998V127.723C89.2998 127.201 89.291 126.768 89.2734 126.422C89.2617 126.07 89.2471 125.76 89.2295 125.49H91.585C91.5967 125.543 91.6084 125.66 91.6201 125.842C91.6318 126.023 91.6436 126.229 91.6553 126.457C91.667 126.68 91.6758 126.891 91.6816 127.09C91.6934 127.289 91.6992 127.433 91.6992 127.521H91.7344C91.9688 126.864 92.1826 126.393 92.376 126.105C92.5635 125.83 92.7861 125.628 93.0439 125.499C93.3018 125.37 93.624 125.306 94.0107 125.306C94.3271 125.306 94.582 125.35 94.7754 125.438V127.503C94.3828 127.415 94.0312 127.371 93.7207 127.371C93.1055 127.371 92.625 127.62 92.2793 128.118C91.9395 128.616 91.7695 129.354 91.7695 130.333ZM98.3525 130.72C98.3525 131.646 98.5225 132.346 98.8623 132.82C99.208 133.289 99.6973 133.523 100.33 133.523C100.764 133.523 101.118 133.43 101.394 133.242C101.675 133.049 101.871 132.765 101.982 132.39L104.312 132.592C103.638 134.314 102.27 135.176 100.207 135.176C98.7773 135.176 97.6787 134.754 96.9111 133.91C96.1436 133.061 95.7598 131.824 95.7598 130.201C95.7598 128.631 96.1494 127.424 96.9287 126.58C97.708 125.736 98.8125 125.314 100.242 125.314C101.607 125.314 102.65 125.769 103.371 126.677C104.092 127.579 104.452 128.903 104.452 130.649V130.72H98.3525ZM102.062 129.173C102.015 128.405 101.83 127.831 101.508 127.45C101.186 127.063 100.752 126.87 100.207 126.87C99.627 126.87 99.1787 127.072 98.8623 127.477C98.5518 127.881 98.3877 128.446 98.3701 129.173H102.062ZM113.76 121.957V138.999H111.457V121.957H113.76ZM130.582 132.996V135H121.345V122.616H123.938V132.996H130.582ZM134.44 130.72C134.44 131.646 134.61 132.346 134.95 132.82C135.296 133.289 135.785 133.523 136.418 133.523C136.852 133.523 137.206 133.43 137.481 133.242C137.763 133.049 137.959 132.765 138.07 132.39L140.399 132.592C139.726 134.314 138.357 135.176 136.295 135.176C134.865 135.176 133.767 134.754 132.999 133.91C132.231 133.061 131.848 131.824 131.848 130.201C131.848 128.631 132.237 127.424 133.017 126.58C133.796 125.736 134.9 125.314 136.33 125.314C137.695 125.314 138.738 125.769 139.459 126.677C140.18 127.579 140.54 128.903 140.54 130.649V130.72H134.44ZM138.149 129.173C138.103 128.405 137.918 127.831 137.596 127.45C137.273 127.063 136.84 126.87 136.295 126.87C135.715 126.87 135.267 127.072 134.95 127.477C134.64 127.881 134.476 128.446 134.458 129.173H138.149ZM144.618 135.176C143.698 135.176 142.98 134.927 142.465 134.429C141.949 133.925 141.691 133.219 141.691 132.311C141.691 131.326 142.011 130.579 142.649 130.069C143.294 129.56 144.226 129.293 145.444 129.27L147.492 129.234V128.751C147.492 128.13 147.384 127.67 147.167 127.371C146.95 127.066 146.596 126.914 146.104 126.914C145.646 126.914 145.31 127.02 145.093 127.23C144.882 127.436 144.75 127.778 144.697 128.259L142.122 128.136C142.444 126.255 143.807 125.314 146.209 125.314C147.41 125.314 148.336 125.61 148.986 126.202C149.637 126.794 149.962 127.635 149.962 128.725V132.188C149.962 132.721 150.021 133.09 150.138 133.295C150.261 133.494 150.463 133.594 150.744 133.594C150.932 133.594 151.113 133.576 151.289 133.541V134.877C150.984 134.953 150.724 135.009 150.507 135.044C150.29 135.085 150.023 135.105 149.707 135.105C149.086 135.105 148.626 134.953 148.327 134.648C148.034 134.344 147.858 133.896 147.8 133.304H147.747C147.401 133.925 146.968 134.394 146.446 134.71C145.925 135.021 145.315 135.176 144.618 135.176ZM147.492 130.597L146.227 130.614C145.646 130.644 145.239 130.705 145.005 130.799C144.765 130.904 144.58 131.062 144.451 131.273C144.328 131.484 144.267 131.766 144.267 132.117C144.267 132.568 144.369 132.905 144.574 133.128C144.785 133.345 145.063 133.453 145.409 133.453C145.796 133.453 146.15 133.348 146.473 133.137C146.789 132.926 147.038 132.636 147.22 132.267C147.401 131.892 147.492 131.496 147.492 131.08V130.597ZM154.91 130.333V135H152.44V127.723C152.44 127.201 152.432 126.768 152.414 126.422C152.402 126.07 152.388 125.76 152.37 125.49H154.726C154.737 125.543 154.749 125.66 154.761 125.842C154.772 126.023 154.784 126.229 154.796 126.457C154.808 126.68 154.816 126.891 154.822 127.09C154.834 127.289 154.84 127.433 154.84 127.521H154.875C155.109 126.864 155.323 126.393 155.517 126.105C155.704 125.83 155.927 125.628 156.185 125.499C156.442 125.37 156.765 125.306 157.151 125.306C157.468 125.306 157.723 125.35 157.916 125.438V127.503C157.523 127.415 157.172 127.371 156.861 127.371C156.246 127.371 155.766 127.62 155.42 128.118C155.08 128.616 154.91 129.354 154.91 130.333ZM161.924 129.902V135H159.454V127.617C159.454 127.107 159.445 126.691 159.428 126.369C159.416 126.041 159.401 125.748 159.384 125.49H161.739C161.751 125.561 161.766 125.728 161.783 125.991C161.801 126.249 161.815 126.516 161.827 126.791C161.845 127.061 161.854 127.257 161.854 127.38H161.889C162.223 126.653 162.642 126.126 163.146 125.798C163.649 125.47 164.25 125.306 164.947 125.306C165.955 125.306 166.729 125.616 167.268 126.237C167.807 126.858 168.076 127.767 168.076 128.962V135H165.615V129.665C165.615 128.827 165.475 128.2 165.193 127.784C164.912 127.368 164.487 127.16 163.919 127.16C163.321 127.16 162.838 127.418 162.469 127.934C162.105 128.443 161.924 129.1 161.924 129.902ZM177.885 121.957V138.999H175.582V121.957H177.885ZM195.568 132.996V135H185.47V122.616H195.208V124.62H188.062V127.731H194.672V129.735H188.062V132.996H195.568ZM199.998 129.902V135H197.528V127.617C197.528 127.107 197.52 126.691 197.502 126.369C197.49 126.041 197.476 125.748 197.458 125.49H199.813C199.825 125.561 199.84 125.728 199.857 125.991C199.875 126.249 199.89 126.516 199.901 126.791C199.919 127.061 199.928 127.257 199.928 127.38H199.963C200.297 126.653 200.716 126.126 201.22 125.798C201.724 125.47 202.324 125.306 203.021 125.306C204.029 125.306 204.803 125.616 205.342 126.237C205.881 126.858 206.15 127.767 206.15 128.962V135H203.689V129.665C203.689 128.827 203.549 128.2 203.268 127.784C202.986 127.368 202.562 127.16 201.993 127.16C201.396 127.16 200.912 127.418 200.543 127.934C200.18 128.443 199.998 129.1 199.998 129.902ZM211.011 121.957V123.776H208.541V121.957H211.011ZM208.488 138.735C207.908 138.735 207.41 138.709 206.994 138.656V136.916C207.07 136.922 207.146 136.928 207.223 136.934C207.293 136.945 207.366 136.951 207.442 136.951C207.864 136.951 208.151 136.857 208.304 136.67C208.462 136.488 208.541 136.107 208.541 135.527V125.49H211.011V136.125C211.011 136.963 210.797 137.607 210.369 138.059C209.947 138.51 209.32 138.735 208.488 138.735ZM222.577 130.236C222.577 131.777 222.149 132.987 221.294 133.866C220.438 134.739 219.255 135.176 217.743 135.176C216.261 135.176 215.098 134.736 214.254 133.857C213.41 132.979 212.988 131.771 212.988 130.236C212.988 128.707 213.41 127.506 214.254 126.633C215.098 125.754 216.278 125.314 217.796 125.314C219.349 125.314 220.532 125.739 221.347 126.589C222.167 127.433 222.577 128.648 222.577 130.236ZM219.993 130.236C219.993 129.105 219.809 128.285 219.439 127.775C219.07 127.266 218.534 127.011 217.831 127.011C217.081 127.011 216.519 127.28 216.144 127.819C215.769 128.353 215.581 129.158 215.581 130.236C215.581 131.297 215.763 132.105 216.126 132.662C216.495 133.213 217.025 133.488 217.717 133.488C218.479 133.488 219.047 133.219 219.422 132.68C219.803 132.135 219.993 131.32 219.993 130.236ZM225.776 138.735C225.173 138.735 224.654 138.697 224.221 138.621V136.863C224.549 136.91 224.833 136.934 225.073 136.934C225.647 136.934 226.075 136.778 226.356 136.468C226.644 136.157 226.922 135.636 227.191 134.903L223.43 125.49H226.04L227.534 129.946C227.651 130.269 227.783 130.673 227.93 131.159C228.076 131.646 228.24 132.22 228.422 132.882C228.557 132.343 228.686 131.845 228.809 131.388C228.932 130.931 229.066 130.462 229.213 129.981L230.619 125.49H233.203L229.441 135.501C229.289 135.905 229.128 136.263 228.958 136.573C228.788 136.884 228.615 137.159 228.439 137.399C228.082 137.886 227.692 138.229 227.271 138.428C226.849 138.633 226.351 138.735 225.776 138.735Z" fill="#6F8437"/>
</g>
<defs>
<filter id="filter0_d_29_1414" x="-1" y="5.96046e-08" width="117" height="119.923" filterUnits="userSpaceOnUse" color-interpolation-filters="sRGB">
<feFlood flood-opacity="0" result="BackgroundImageFix"/>
<feColorMatrix in="SourceAlpha" type="matrix" values="0 0 0 0 0 0 0 0 0 0 0 0 0 0 0 0 0 0 127 0" result="hardAlpha"/>
<feOffset dx="1" dy="1"/>
<feGaussianBlur stdDeviation="1"/>
<feComposite in2="hardAlpha" operator="out"/>
<feColorMatrix type="matrix" values="0 0 0 0 0 0 0 0 0 0 0 0 0 0 0 0 0 0 0.25 0"/>
<feBlend mode="normal" in2="BackgroundImageFix" result="effect1_dropShadow_29_1414"/>
<feBlend mode="normal" in="SourceGraphic" in2="effect1_dropShadow_29_1414" result="shape"/>
</filter>
<filter id="filter1_d_29_1414" x="101.008" y="62.36" width="146.349" height="37.12" filterUnits="userSpaceOnUse" color-interpolation-filters="sRGB">
<feFlood flood-opacity="0" result="BackgroundImageFix"/>
<feColorMatrix in="SourceAlpha" type="matrix" values="0 0 0 0 0 0 0 0 0 0 0 0 0 0 0 0 0 0 127 0" result="hardAlpha"/>
<feOffset dx="1" dy="1"/>
<feGaussianBlur stdDeviation="1"/>
<feComposite in2="hardAlpha" operator="out"/>
<feColorMatrix type="matrix" values="0 0 0 0 0 0 0 0 0 0 0 0 0 0 0 0 0 0 0.25 0"/>
<feBlend mode="normal" in2="BackgroundImageFix" result="effect1_dropShadow_29_1414"/>
<feBlend mode="normal" in="SourceGraphic" in2="effect1_dropShadow_29_1414" result="shape"/>
</filter>
<filter id="filter2_d_29_1414" x="39.2041" y="120.957" width="196.999" height="21.042" filterUnits="userSpaceOnUse" color-interpolation-filters="sRGB">
<feFlood flood-opacity="0" result="BackgroundImageFix"/>
<feColorMatrix in="SourceAlpha" type="matrix" values="0 0 0 0 0 0 0 0 0 0 0 0 0 0 0 0 0 0 127 0" result="hardAlpha"/>
<feOffset dx="1" dy="1"/>
<feGaussianBlur stdDeviation="1"/>
<feComposite in2="hardAlpha" operator="out"/>
<feColorMatrix type="matrix" values="0 0 0 0 0 0 0 0 0 0 0 0 0 0 0 0 0 0 0.25 0"/>
<feBlend mode="normal" in2="BackgroundImageFix" result="effect1_dropShadow_29_1414"/>
<feBlend mode="normal" in="SourceGraphic" in2="effect1_dropShadow_29_1414" result="shape"/>
</filter>
<linearGradient id="paint0_linear_29_1414" x1="38.9062" y1="1.3631" x2="38.9062" y2="49.5011" gradientUnits="userSpaceOnUse">
<stop offset="0.89" stop-color="#6F8437"/>
<stop offset="1" stop-color="#E5F5AE"/>
</linearGradient>
<linearGradient id="paint1_linear_29_1414" x1="38.9062" y1="1.3631" x2="38.9062" y2="49.5011" gradientUnits="userSpaceOnUse">
<stop offset="0.89" stop-color="#6F8437"/>
<stop offset="1" stop-color="#E5F5AE"/>
</linearGradient>
<linearGradient id="paint2_linear_29_1414" x1="23.8355" y1="34.5103" x2="23.8355" y2="97.4957" gradientUnits="userSpaceOnUse">
<stop offset="0.89" stop-color="#6F8437"/>
<stop offset="1" stop-color="#E5F5AE"/>
</linearGradient>
<linearGradient id="paint3_linear_29_1414" x1="23.8355" y1="34.5103" x2="23.8355" y2="97.4957" gradientUnits="userSpaceOnUse">
<stop offset="0.89" stop-color="#6F8437"/>
<stop offset="1" stop-color="#E5F5AE"/>
</linearGradient>
<linearGradient id="paint4_linear_29_1414" x1="21.1053" y1="56.1769" x2="21.1053" y2="74.8156" gradientUnits="userSpaceOnUse">
<stop offset="0.89" stop-color="#6F8437"/>
<stop offset="1" stop-color="#E5F5AE"/>
</linearGradient>
<linearGradient id="paint5_linear_29_1414" x1="67.9222" y1="5.27515" x2="67.9222" y2="116.916" gradientUnits="userSpaceOnUse">
<stop offset="0.89" stop-color="#6F8437"/>
<stop offset="1" stop-color="#E5F5AE"/>
</linearGradient>
<linearGradient id="paint6_linear_29_1414" x1="21.0365" y1="75.6707" x2="21.0365" y2="77.6656" gradientUnits="userSpaceOnUse">
<stop offset="0.89" stop-color="#6F8437"/>
<stop offset="1" stop-color="#E5F5AE"/>
</linearGradient>
<linearGradient id="paint7_linear_29_1414" x1="21.0399" y1="78.5206" x2="21.0399" y2="80.0026" gradientUnits="userSpaceOnUse">
<stop offset="0.89" stop-color="#6F8437"/>
<stop offset="1" stop-color="#E5F5AE"/>
</linearGradient>
<linearGradient id="paint8_linear_29_1414" x1="20.6433" y1="68.0274" x2="20.6433" y2="74.7942" gradientUnits="userSpaceOnUse">
<stop offset="0.89" stop-color="#6F8437"/>
<stop offset="1" stop-color="#E5F5AE"/>
</linearGradient>
<linearGradient id="paint9_linear_29_1414" x1="19.7436" y1="55.5297" x2="19.7436" y2="74.5496" gradientUnits="userSpaceOnUse">
<stop offset="0.89" stop-color="#6F8437"/>
<stop offset="1" stop-color="#E5F5AE"/>
</linearGradient>
<linearGradient id="paint10_linear_29_1414" x1="19.6733" y1="75.4221" x2="19.6733" y2="77.4578" gradientUnits="userSpaceOnUse">
<stop offset="0.89" stop-color="#6F8437"/>
<stop offset="1" stop-color="#E5F5AE"/>
</linearGradient>
<linearGradient id="paint11_linear_29_1414" x1="19.677" y1="78.3303" x2="19.677" y2="79.8426" gradientUnits="userSpaceOnUse">
<stop offset="0.89" stop-color="#6F8437"/>
<stop offset="1" stop-color="#E5F5AE"/>
</linearGradient>
<linearGradient id="paint12_linear_29_1414" x1="19.272" y1="67.6226" x2="19.272" y2="74.5278" gradientUnits="userSpaceOnUse">
<stop offset="0.89" stop-color="#6F8437"/>
<stop offset="1" stop-color="#E5F5AE"/>
</linearGradient>
<linearGradient id="paint13_linear_29_1414" x1="174" y1="52" x2="174" y2="96" gradientUnits="userSpaceOnUse">
<stop offset="0.91" stop-color="#6F8437"/>
<stop offset="1" stop-color="white"/>
</linearGradient>
<clipPath id="clip0_29_1414">
<rect width="113" height="115.923" fill="white" transform="translate(0 1)"/>
</clipPath>
</defs>
</svg>
