<?xml version="1.0" encoding="utf-8"?>
<!-- Generator: Adobe Illustrator 23.0.1, SVG Export Plug-In . SVG Version: 6.00 Build 0)  -->
<svg version="1.1" id="Layer_1" xmlns="http://www.w3.org/2000/svg" xmlns:xlink="http://www.w3.org/1999/xlink" x="0px" y="0px"
	 viewBox="0 0 248 142" style="enable-background:new 0 0 248 142;" xml:space="preserve">
<style type="text/css">
	.st0{clip-path:url(#SVGID_2_);}
	.st1{fill:#FFFFFF;}
</style>
<g>
	<defs>
		<rect id="SVGID_1_" y="1" width="113" height="115.9"/>
	</defs>
	<clipPath id="SVGID_2_">
		<use xlink:href="#SVGID_1_"  style="overflow:visible;"/>
	</clipPath>
	<g class="st0">
		<path class="st1" d="M74.2,5.3c9.5,6.3,11.3,15.2,11.7,20c0.3,3.9,3.1,8.8,5.9,10.4c1.7,1,3.6,2.1,6.1,4c0.9,0.7,0.9,1.5,0.9,2.2
			c0,2.9-3.7,3.5-4.1,5.9c0.2,1.3,3.6,2.7,3.3,4.7c-0.3,1.6-2.2,2.2-2.2,3.3c0,1.1,1.5,2,1.5,2s0.5,0.4,0.5,1.4c0,1-0.8,1.5-1.5,3.3
			c-0.6,3.4,3.7,6.1,1.7,9.4c-1,1.7-2.9,2.9-6.2,3.2c-6.5,0.4-13.4,0.7-19.7,3.8c-6.5,4.2-13.4,9.6-10.8,20.6
			c1.5,4.7,8.7,9.4,14.9,9.8c5.1,0.4,11,0,13.8-3.3c2.5-2.9,0.7-8.4,0.7-8.4h7.2c0,0,0.6,4.2-0.3,9.1c-1,5.5-6.5,9.1-13.8,9.8
			c-14.9,1.5-23.6-3.3-26.1-4.4C47.6,106.8,37,97.2,37,84.5c0-17.8,13.7-35.4,13.7-35.4l12.5-14.9C70.8,23.8,74.2,23.7,74.2,5.3
			L74.2,5.3z"/>
		<path class="st1" d="M69.2,3.7L69.2,3.7c0,0-42.5-14-62,27.2c0.6,2.5,3.2,5.6,8.8,9.4c5.1-10.2,19.6-1.8,13.5,7.6
			c6.5,2.4,11.8,2.2,18-1C58.1,32.5,75.6,21.4,69.2,3.7z M34.2,23.5l-0.3-0.4l0.2-0.1c1.5-1.1,2.7-1.8,3.5-2.2
			c-0.9-0.6-1.4-1.4-1.4-2.3c0-0.5,0.2-0.9,0.6-1.2c0.4-0.3,0.8-0.5,1.4-0.5c1.1,0,1.9,0.6,2.4,1.8h-0.1c-0.7-0.9-1.5-1.4-2.4-1.4
			c-1,0-1.5,0.4-1.5,1.3c0,0.9,0.6,1.7,1.8,2.2L38.1,21c-1.7,1-2.9,1.8-3.8,2.4L34.2,23.5z M35.5,29.2c0-1.6,0.9-3.2,2.6-5
			c1.1-1.2,1.9-2.1,2.3-2.7c0.4-0.7,0.6-1.4,0.6-2.2c0-1-0.3-1.7-0.9-2.3c-0.6-0.6-1.3-0.9-2.2-0.9c-0.8,0-1.5,0.2-2,0.7
			c-0.6,0.5-0.9,1.1-0.9,1.8c0,0.7,0.5,1.4,1.4,1.9c-0.1,0.1-0.2,0.1-0.2,0.1l-0.9,0.5c-0.7,0.4-1.4,0.9-2.2,1.6
			c-0.8-1-1.2-2.1-1.2-3.2c0-1.4,0.6-2.6,1.7-3.5c1.1-0.9,2.6-1.4,4.4-1.4c1.9,0,3.4,0.5,4.7,1.5c1.2,1,1.9,2.3,1.9,3.8
			c0,1.1-0.3,2-0.8,2.8c-0.5,0.8-1.4,1.6-2.7,2.5l-1.8,1.2c-0.6,0.4-1.1,0.9-1.6,1.6c-0.5,0.6-0.7,1.1-0.6,1.5l0.1,0.9
			c0,0.2,0,0.3-0.2,0.4c-0.1,0.1-0.2,0.2-0.4,0.2c-0.3,0-0.5-0.2-0.7-0.6C35.6,30.1,35.5,29.6,35.5,29.2z M35.9,34
			c0-0.6,0.2-1.1,0.6-1.6c0.4-0.4,0.9-0.6,1.6-0.6c0.6,0,1.1,0.2,1.6,0.6c0.4,0.4,0.6,1,0.6,1.6c0,0.6-0.2,1.1-0.6,1.6
			s-1,0.6-1.6,0.6c-0.6,0-1.1-0.2-1.6-0.6S35.9,34.6,35.9,34z M40.9,36.7c-0.6,0.6-1.2,0.9-2,0.9c-0.9,0-1.6-0.3-2.2-1l0.1-0.1
			c0.7,0.4,1.4,0.6,2,0.6c0.7,0,1.3-0.2,1.8-0.7c0.5-0.5,0.8-1.1,0.8-1.8c0-0.6-0.2-1.3-0.7-2l0.1-0.1c0.6,0.6,1,1.3,1,2.2
			C41.8,35.5,41.5,36.1,40.9,36.7z M44.7,23.9c-0.4,0.6-1.6,1.6-3.6,3.1l-1,0.7c-1.2,0.9-1.7,1.7-1.7,2.5c0,0.4,0.2,0.9,0.5,1.4
			l-0.6-0.2c-0.2-0.4-0.3-0.8-0.3-1.2c0-0.6,0.2-1.2,0.6-1.7c0.4-0.5,1.2-1.1,2.2-1.9c1.8-1.2,3.1-2.3,3.8-3.2c0.7-0.9,1-2,1-3.2
			c0-0.9-0.2-1.7-0.6-2.5c-0.4-0.8-0.9-1.4-1.6-1.8l0.1-0.2c1.7,1.2,2.5,2.8,2.5,4.7C46,21.6,45.5,22.8,44.7,23.9z"/>
	</g>
</g>
<g>
	<path class="st1" d="M124.3,65.5v-1.7h9.8v1.7h-2.6L131,66v18.2c0,2.5-0.5,4.7-1.5,6.5c-1,1.8-2.4,3.2-4.3,4.2
		c-1.8,1-4,1.5-6.5,1.5c-2.9,0-5.3-0.5-7.4-1.5c-2-1.1-3.6-2.5-4.7-4.2c-1.1-1.8-1.6-3.7-1.6-5.9V66l-0.5-0.5H102v-1.7h13.7v1.7H113
		l-0.5,0.5v17.8c0,1.9,0.3,3.7,0.8,5.2c0.5,1.5,1.4,2.8,2.5,3.7c1.2,0.9,2.7,1.4,4.6,1.4c1.5,0,2.9-0.4,4.2-1.2
		c1.3-0.8,2.3-1.9,3.1-3.4c0.8-1.5,1.2-3.2,1.2-5.3V66l-0.5-0.5H124.3z M150.8,65.5h-2.6l-0.5,0.5v27.8l0.5,0.5h2.6V96h-13.7v-1.7
		h2.6l0.5-0.5V66l-0.5-0.5h-2.6v-1.7h13.7V65.5z M153.7,96v-1.4L170.4,66l-0.5-0.5h-3.5c-1.5,0-3,0.2-4.3,0.6c-1.3,0.4-2.5,1-3.6,2
		c-1.1,0.9-2,2.2-2.8,3.9l-1.6-0.5l1.7-7.7h23.3v1.4l-16.7,28.6l0.5,0.5h5.4c2.3,0,4.4-0.6,6.3-1.8c1.9-1.2,3.5-3.1,4.6-5.6h1.7
		L179,96H153.7z M182.2,96v-1.4L198.9,66l-0.5-0.5H195c-1.5,0-3,0.2-4.3,0.6c-1.3,0.4-2.5,1-3.6,2c-1.1,0.9-2,2.2-2.8,3.9l-1.6-0.5
		l1.7-7.7h23.3v1.4L191,93.8l0.5,0.5h5.4c2.3,0,4.4-0.6,6.3-1.8c1.9-1.2,3.5-3.1,4.6-5.6h1.7l-2.1,9.1H182.2z M228,63.4
		c3.4,0,6.4,0.7,8.8,2.1c2.4,1.4,4.3,3.4,5.6,5.9c1.3,2.5,2,5.4,2,8.6c0,2.4-0.4,4.6-1.2,6.6c-0.8,2-1.9,3.8-3.3,5.3
		c-1.4,1.5-3.1,2.6-5.1,3.5c-2,0.8-4.2,1.2-6.7,1.2c-3.4,0-6.4-0.7-8.8-2.1c-2.4-1.4-4.3-3.4-5.6-5.9c-1.3-2.5-1.9-5.4-1.9-8.6
		c0-2.4,0.4-4.6,1.2-6.6c0.8-2,1.9-3.8,3.3-5.2c1.4-1.5,3.2-2.7,5.2-3.5C223.4,63.8,225.6,63.4,228,63.4z M228.5,94.6
		c1.6,0,2.9-0.6,4.1-1.7c1.2-1.2,2.1-2.8,2.8-4.9c0.7-2.1,1-4.6,1-7.5c0-2.8-0.4-5.3-1.2-7.6c-0.8-2.3-1.8-4.1-3.2-5.5
		c-1.3-1.4-2.8-2.1-4.5-2.1c-1.5,0-2.9,0.6-4.1,1.8c-1.2,1.2-2.1,2.8-2.8,4.9c-0.7,2.1-1,4.6-1,7.4c0,2.8,0.4,5.3,1.2,7.6
		c0.8,2.3,1.9,4.1,3.2,5.5C225.3,93.9,226.9,94.6,228.5,94.6z"/>
</g>
<g>
	<path class="st1" d="M50.3,133v2H40.2v-12.4h9.7v2h-7.1v3.1h6.6v2h-6.6v3.3H50.3z M56,131.6l-2.2,3.4h-2.6l3.5-4.9l-3.3-4.6H54
		l2,3.1l2-3.1h2.7l-3.3,4.6l3.5,4.9h-2.7L56,131.6z M71.3,130.2c0,1.6-0.3,2.8-1,3.7c-0.6,0.9-1.5,1.3-2.7,1.3
		c-1.4,0-2.3-0.6-2.9-1.7h-0.1c0,0.2,0.1,0.7,0.1,1.6v3.6h-2.5v-11.1c0-0.5,0-0.9,0-1.2c0-0.4,0-0.7-0.1-1h2.4c0,0.1,0,0.2,0.1,0.4
		c0,0.2,0,0.4,0,0.6c0,0.2,0,0.4,0,0.6h0c0.3-0.6,0.7-1,1.2-1.3c0.5-0.3,1.1-0.4,1.9-0.4c1.1,0,2,0.4,2.6,1.3
		C71,127.4,71.3,128.6,71.3,130.2z M68.7,130.2c0-1.1-0.2-1.9-0.5-2.4c-0.3-0.5-0.8-0.8-1.5-0.8c-0.7,0-1.2,0.3-1.5,0.9
		c-0.3,0.6-0.5,1.4-0.5,2.4c0,1,0.2,1.8,0.5,2.4c0.4,0.6,0.8,0.8,1.5,0.8c0.7,0,1.2-0.3,1.5-0.8C68.5,132.1,68.7,131.3,68.7,130.2z
		 M75.8,122v13h-2.5v-13H75.8z M87.3,130.2c0,1.5-0.4,2.8-1.3,3.6c-0.9,0.9-2,1.3-3.6,1.3c-1.5,0-2.6-0.4-3.5-1.3
		c-0.8-0.9-1.3-2.1-1.3-3.6c0-1.5,0.4-2.7,1.3-3.6c0.8-0.9,2-1.3,3.5-1.3c1.6,0,2.7,0.4,3.6,1.3C86.9,127.4,87.3,128.6,87.3,130.2z
		 M84.7,130.2c0-1.1-0.2-2-0.6-2.5c-0.4-0.5-0.9-0.8-1.6-0.8c-0.8,0-1.3,0.3-1.7,0.8c-0.4,0.5-0.6,1.3-0.6,2.4
		c0,1.1,0.2,1.9,0.5,2.4c0.4,0.6,0.9,0.8,1.6,0.8c0.8,0,1.3-0.3,1.7-0.8C84.6,132.1,84.7,131.3,84.7,130.2z M91.8,130.3v4.7h-2.5
		v-7.3c0-0.5,0-1,0-1.3c0-0.4,0-0.7,0-0.9h2.4c0,0.1,0,0.2,0,0.4c0,0.2,0,0.4,0,0.6c0,0.2,0,0.4,0,0.6c0,0.2,0,0.3,0,0.4h0
		c0.2-0.7,0.4-1.1,0.6-1.4c0.2-0.3,0.4-0.5,0.7-0.6c0.3-0.1,0.6-0.2,1-0.2c0.3,0,0.6,0,0.8,0.1v2.1c-0.4-0.1-0.7-0.1-1.1-0.1
		c-0.6,0-1.1,0.2-1.4,0.7C91.9,128.6,91.8,129.4,91.8,130.3z M98.4,130.7c0,0.9,0.2,1.6,0.5,2.1c0.3,0.5,0.8,0.7,1.5,0.7
		c0.4,0,0.8-0.1,1.1-0.3c0.3-0.2,0.5-0.5,0.6-0.9l2.3,0.2c-0.7,1.7-2,2.6-4.1,2.6c-1.4,0-2.5-0.4-3.3-1.3c-0.8-0.8-1.2-2.1-1.2-3.7
		c0-1.6,0.4-2.8,1.2-3.6c0.8-0.8,1.9-1.3,3.3-1.3c1.4,0,2.4,0.5,3.1,1.4c0.7,0.9,1.1,2.2,1.1,4v0.1H98.4z M102.1,129.2
		c0-0.8-0.2-1.3-0.6-1.7c-0.3-0.4-0.8-0.6-1.3-0.6c-0.6,0-1,0.2-1.3,0.6c-0.3,0.4-0.5,1-0.5,1.7H102.1z M113.8,122v17h-2.3v-17
		H113.8z M130.6,133v2h-9.2v-12.4h2.6V133H130.6z M134.4,130.7c0,0.9,0.2,1.6,0.5,2.1c0.3,0.5,0.8,0.7,1.5,0.7
		c0.4,0,0.8-0.1,1.1-0.3c0.3-0.2,0.5-0.5,0.6-0.9l2.3,0.2c-0.7,1.7-2,2.6-4.1,2.6c-1.4,0-2.5-0.4-3.3-1.3c-0.8-0.8-1.2-2.1-1.2-3.7
		c0-1.6,0.4-2.8,1.2-3.6c0.8-0.8,1.9-1.3,3.3-1.3c1.4,0,2.4,0.5,3.1,1.4c0.7,0.9,1.1,2.2,1.1,4v0.1H134.4z M138.1,129.2
		c0-0.8-0.2-1.3-0.6-1.7c-0.3-0.4-0.8-0.6-1.3-0.6c-0.6,0-1,0.2-1.3,0.6c-0.3,0.4-0.5,1-0.5,1.7H138.1z M144.6,135.2
		c-0.9,0-1.6-0.2-2.2-0.7c-0.5-0.5-0.8-1.2-0.8-2.1c0-1,0.3-1.7,1-2.2c0.6-0.5,1.6-0.8,2.8-0.8l2,0v-0.5c0-0.6-0.1-1.1-0.3-1.4
		c-0.2-0.3-0.6-0.5-1.1-0.5c-0.5,0-0.8,0.1-1,0.3c-0.2,0.2-0.3,0.5-0.4,1l-2.6-0.1c0.3-1.9,1.7-2.8,4.1-2.8c1.2,0,2.1,0.3,2.8,0.9
		c0.7,0.6,1,1.4,1,2.5v3.5c0,0.5,0.1,0.9,0.2,1.1c0.1,0.2,0.3,0.3,0.6,0.3c0.2,0,0.4,0,0.5-0.1v1.3c-0.3,0.1-0.6,0.1-0.8,0.2
		c-0.2,0-0.5,0.1-0.8,0.1c-0.6,0-1.1-0.2-1.4-0.5c-0.3-0.3-0.5-0.8-0.5-1.3h-0.1c-0.3,0.6-0.8,1.1-1.3,1.4
		C145.9,135,145.3,135.2,144.6,135.2z M147.5,130.6l-1.3,0c-0.6,0-1,0.1-1.2,0.2c-0.2,0.1-0.4,0.3-0.6,0.5c-0.1,0.2-0.2,0.5-0.2,0.8
		c0,0.5,0.1,0.8,0.3,1c0.2,0.2,0.5,0.3,0.8,0.3c0.4,0,0.7-0.1,1.1-0.3c0.3-0.2,0.6-0.5,0.7-0.9c0.2-0.4,0.3-0.8,0.3-1.2V130.6z
		 M154.9,130.3v4.7h-2.5v-7.3c0-0.5,0-1,0-1.3c0-0.4,0-0.7,0-0.9h2.4c0,0.1,0,0.2,0,0.4c0,0.2,0,0.4,0,0.6c0,0.2,0,0.4,0,0.6
		c0,0.2,0,0.3,0,0.4h0c0.2-0.7,0.4-1.1,0.6-1.4c0.2-0.3,0.4-0.5,0.7-0.6c0.3-0.1,0.6-0.2,1-0.2c0.3,0,0.6,0,0.8,0.1v2.1
		c-0.4-0.1-0.7-0.1-1.1-0.1c-0.6,0-1.1,0.2-1.4,0.7C155.1,128.6,154.9,129.4,154.9,130.3z M161.9,129.9v5.1h-2.5v-7.4
		c0-0.5,0-0.9,0-1.2c0-0.3,0-0.6,0-0.9h2.4c0,0.1,0,0.2,0,0.5c0,0.3,0,0.5,0,0.8c0,0.3,0,0.5,0,0.6h0c0.3-0.7,0.8-1.3,1.3-1.6
		c0.5-0.3,1.1-0.5,1.8-0.5c1,0,1.8,0.3,2.3,0.9s0.8,1.5,0.8,2.7v6h-2.5v-5.3c0-0.8-0.1-1.5-0.4-1.9c-0.3-0.4-0.7-0.6-1.3-0.6
		c-0.6,0-1.1,0.3-1.5,0.8C162.1,128.4,161.9,129.1,161.9,129.9z M177.9,122v17h-2.3v-17H177.9z M195.6,133v2h-10.1v-12.4h9.7v2h-7.1
		v3.1h6.6v2h-6.6v3.3H195.6z M200,129.9v5.1h-2.5v-7.4c0-0.5,0-0.9,0-1.2c0-0.3,0-0.6,0-0.9h2.4c0,0.1,0,0.2,0,0.5
		c0,0.3,0,0.5,0,0.8c0,0.3,0,0.5,0,0.6h0c0.3-0.7,0.8-1.3,1.3-1.6c0.5-0.3,1.1-0.5,1.8-0.5c1,0,1.8,0.3,2.3,0.9s0.8,1.5,0.8,2.7v6
		h-2.5v-5.3c0-0.8-0.1-1.5-0.4-1.9c-0.3-0.4-0.7-0.6-1.3-0.6c-0.6,0-1.1,0.3-1.4,0.8C200.2,128.4,200,129.1,200,129.9z M211,122v1.8
		h-2.5V122H211z M208.5,138.7c-0.6,0-1.1,0-1.5-0.1v-1.7c0.1,0,0.2,0,0.2,0c0.1,0,0.1,0,0.2,0c0.4,0,0.7-0.1,0.9-0.3
		c0.2-0.2,0.2-0.6,0.2-1.1v-10h2.5v10.6c0,0.8-0.2,1.5-0.6,1.9C209.9,138.5,209.3,138.7,208.5,138.7z M222.6,130.2
		c0,1.5-0.4,2.8-1.3,3.6c-0.9,0.9-2,1.3-3.6,1.3c-1.5,0-2.6-0.4-3.5-1.3c-0.8-0.9-1.3-2.1-1.3-3.6c0-1.5,0.4-2.7,1.3-3.6
		c0.8-0.9,2-1.3,3.5-1.3c1.6,0,2.7,0.4,3.6,1.3C222.2,127.4,222.6,128.6,222.6,130.2z M220,130.2c0-1.1-0.2-2-0.6-2.5
		c-0.4-0.5-0.9-0.8-1.6-0.8c-0.8,0-1.3,0.3-1.7,0.8c-0.4,0.5-0.6,1.3-0.6,2.4c0,1.1,0.2,1.9,0.5,2.4c0.4,0.6,0.9,0.8,1.6,0.8
		c0.8,0,1.3-0.3,1.7-0.8C219.8,132.1,220,131.3,220,130.2z M225.8,138.7c-0.6,0-1.1,0-1.6-0.1v-1.8c0.3,0,0.6,0.1,0.9,0.1
		c0.6,0,1-0.2,1.3-0.5c0.3-0.3,0.6-0.8,0.8-1.6l-3.8-9.4h2.6l1.5,4.5c0.1,0.3,0.2,0.7,0.4,1.2c0.1,0.5,0.3,1.1,0.5,1.7
		c0.1-0.5,0.3-1,0.4-1.5s0.3-0.9,0.4-1.4l1.4-4.5h2.6l-3.8,10c-0.2,0.4-0.3,0.8-0.5,1.1c-0.2,0.3-0.3,0.6-0.5,0.8
		c-0.4,0.5-0.7,0.8-1.2,1C226.8,138.6,226.4,138.7,225.8,138.7z"/>
</g>
<path class="st1" d="M44.9,51.6c-7,2.6-17.6-0.4-19.5-1.2c-1-0.4-2.3-1.4-1.6-2.2c13.6-5.4-5.6-18.8-5.6-2.7c-0.1,0.8-1.3,0.4-1.9,0
	c-2.9-1.6-8.4-6-10.9-11c0,0-16.5,45.8,31.6,63C26.2,75.9,44.9,51.6,44.9,51.6z M15.2,72.9c-0.5-0.6-1-1.2-1.5-1.8
	c0-0.8-0.1-1.9-0.1-3.3c-0.1-2-0.1-2.3-0.1-3.1c0-2.5,0.2-3.5,0.4-4.1c0.1-0.5,0.3-1,0.6-1.6c0.3-0.5,0.9-1.6,2.1-2.3
	c1.2-0.7,2.4-0.7,2.9-0.7c0.6,0,1.7,0,2.8,0.4c1.2,0.5,1.9,1.2,2,1.3c1.4,1.4,1.6,3.3,1.7,5.6c0.1,1,0.1,2,0,4
	c0,1.5-0.1,2.8-0.2,3.7c-0.4,0.5-0.7,0.9-1.2,1.4c-0.6,0.7-1.1,1.2-1.7,1.7c-0.6,0-1.2,0-1.9,0c-0.3-0.5-0.6-1.1-0.9-1.8
	c-0.2-0.6-0.3-1.1-0.4-1.6c0.6,0,1-0.2,1.3-0.3c0.4-0.1,0.7-0.3,0.9-0.6c0.1-0.2,0.2-0.4,0.2-0.7c0-0.3,0.1-0.9-0.2-1.4
	c-0.1-0.2-0.3-0.4-0.4-0.5c-0.1-0.1-0.2-0.1-0.3-0.1c-0.5-0.1-1.1,0.3-1.6,1.1c-0.1,0.2-0.3,0.5-0.4,0.8c-0.1,0.3-0.1,0.6-0.2,0.9
	c0,0-0.1,0-0.1,0c0-0.4,0-0.8,0-1.2c-0.1-0.2-0.3-0.6-0.7-0.9c-0.2-0.1-0.4-0.3-0.8-0.2c-0.4,0-0.8,0.4-1,0.9c0,0.4,0,0.7,0.1,0.8
	c0.2,0.6,0.8,0.9,1.1,1c0.2,0.1,0.4,0.2,0.5,0.2c0,0.5-0.1,1.1-0.1,1.6c-0.1,0.7-0.1,1.4-0.2,2c-0.5,0-1,0-1.5,0
	C16,73.8,15.6,73.3,15.2,72.9z M20.3,74.2c-0.6,0-1.1,0-1.7,0c0.1-0.5,0.1-1.1,0.2-1.7c0.1-0.6,0.1-1.2,0.1-1.7c0.1,0,0.1,0,0.2,0
	c0.1,0.5,0.2,1.1,0.4,1.8C19.7,73.2,20,73.7,20.3,74.2z M19.8,70c0-0.2,0.1-0.5,0.2-0.8c0.2-0.6,0.8-1.3,1.1-1.2
	c0.2,0.1,0.3,0.4,0.3,0.6c0,0.2,0.1,0.6-0.1,0.9c-0.2,0.3-0.5,0.3-0.8,0.4C20.2,70,19.9,70.1,19.8,70z M18.2,69c0,0.1,0,0.2,0,0.3
	c0,0.2,0,0.3,0,0.5c-0.2,0-0.6-0.2-0.9-0.5c-0.1-0.1-0.2-0.2-0.2-0.3c0,0,0-0.4,0.2-0.5C17.6,68.3,18,68.5,18.2,69z M16.6,75.8h6.1
	v1.3h-6.1V75.8z M21.8,79.5h-4.3v-0.8h4.3V79.5z M23.2,79.6h-0.6v-0.8h0.6V79.6z M24,77.3h-0.6V76H24V77.3z M27.2,67.5
	c0,1-0.1,1.4-0.1,2.5c0,0.6,0,1.1,0,1.4c-0.5,0.6-1.1,1.3-1.7,1.9c-0.4,0.4-0.7,0.8-1.1,1.1c-0.2,0-0.4,0-0.5,0
	c0.6-0.6,1.2-1.3,1.8-2c0.4-0.4,0.7-0.8,1-1.2c0-0.5,0-1.2,0-2.1c0-0.8,0.1-1,0.1-1.9c0-1.1,0-1.9,0-2.3c0-0.9,0-1.4-0.1-2.2
	c0-0.3-0.1-0.7-0.2-1.2c-0.1-0.8-0.3-1.6-0.7-2.6c-0.2-0.4-0.3-0.6-0.3-0.6c0,0,0.4,0.5,0.7,1.1c0.2,0.5,0.3,0.8,0.5,1.3
	c0.2,0.6,0.3,1.2,0.3,1.6c0.2,1.1,0.2,1.9,0.2,2.8C27.3,66.1,27.3,66.9,27.2,67.5z"/>
</svg>
