<svg width="90" height="90" viewBox="0 0 90 90" fill="none" xmlns="http://www.w3.org/2000/svg">
<path fill-rule="evenodd" clip-rule="evenodd" d="M56.1951 11.2419C56.687 11.2419 57.1742 11.3388 57.6287 11.5271C58.0833 11.7154 58.4962 11.9913 58.8441 12.3392C59.192 12.6871 59.468 13.1001 59.6562 13.5546C59.8445 14.0091 59.9414 14.4963 59.9414 14.9883C59.9414 15.4803 59.8445 15.9674 59.6562 16.4219C59.468 16.8765 59.192 17.2895 58.8441 17.6373C58.4962 17.9852 58.0833 18.2612 57.6287 18.4494C57.1742 18.6377 56.687 18.7346 56.1951 18.7346H22.478V67.437C22.478 68.4306 22.8727 69.3835 23.5753 70.0861C24.2779 70.7886 25.2308 71.1833 26.2244 71.1833H56.1951C57.1887 71.1833 58.1415 71.578 58.8441 72.2806C59.5467 72.9832 59.9414 73.9361 59.9414 74.9297C59.9414 75.9233 59.5467 76.8762 58.8441 77.5787C58.1415 78.2813 57.1887 78.676 56.1951 78.676H26.2244C23.2436 78.676 20.3849 77.4919 18.2772 75.3842C16.1695 73.2765 14.9854 70.4178 14.9854 67.437V14.9883C14.9854 13.9947 15.3801 13.0418 16.0826 12.3392C16.7852 11.6366 17.7381 11.2419 18.7317 11.2419H56.1951ZM62.5901 31.0713C62.0664 30.5478 61.3992 30.1912 60.673 30.0466C59.9467 29.9019 59.1939 29.9758 58.5096 30.2588C57.8253 30.5419 57.2402 31.0213 56.8283 31.6367C56.4163 32.2521 56.196 32.9757 56.1951 33.7162V41.2089H33.717C32.7234 41.2089 31.7706 41.6036 31.068 42.3062C30.3654 43.0087 29.9707 43.9616 29.9707 44.9552C29.9707 45.9488 30.3654 46.9017 31.068 47.6043C31.7706 48.3069 32.7234 48.7016 33.717 48.7016H56.1951V56.1942C56.1952 56.9351 56.415 57.6592 56.8267 58.2752C57.2384 58.8911 57.8234 59.3712 58.5079 59.6546C59.1923 59.9381 59.9454 60.0123 60.6721 59.8678C61.3987 59.7234 62.0661 59.3667 62.5901 58.8429L73.8291 47.6039C74.5314 46.9013 74.9259 45.9486 74.9259 44.9552C74.9259 43.9618 74.5314 43.0091 73.8291 42.3066L62.5901 31.0713Z" fill="#6F8437"/>
</svg>
